<svg width="144" height="40" viewBox="0 0 144 40" fill="none" xmlns="http://www.w3.org/2000/svg">
<mask id="mask0_13_57" style="mask-type:alpha" maskUnits="userSpaceOnUse" x="0" y="0" width="144" height="40">
<path d="M144 0H0V40H144V0Z" fill="white"/>
</mask>
<g mask="url(#mask0_13_57)">
<path d="M86.0534 0L70.8278 11.651H76.9598L82.0371 7.76554V11.651H86.0534V0Z" fill="#FDC231"/>
<path d="M12.2352 16.0986C15.185 16.0986 17.9753 17.366 19.8898 19.5763L17.5927 21.501C16.2528 19.9539 14.3 19.0665 12.2352 19.0665C8.35536 19.0665 5.19926 22.1707 5.19926 25.9872C5.19926 29.8028 8.35536 32.9066 12.2352 32.9066C14.3828 32.9066 16.3855 31.9606 17.73 30.3093L20.0851 32.1651C18.1647 34.5224 15.3035 35.8749 12.2352 35.8749C6.69162 35.8749 2.18176 31.4392 2.18176 25.9872C2.18176 20.5347 6.69162 16.0986 12.2352 16.0986ZM31.6382 16.4716C36.8827 16.4716 40.4063 20.3963 40.4063 26.2375C40.4063 26.4866 40.4063 26.7684 40.3702 27.1947L40.3479 27.4587H25.9888C26.4537 30.6877 28.8584 32.8335 32.0603 32.8335C34.2142 32.8335 35.9687 32.0597 37.5812 30.3977L37.7765 30.1961L39.8938 32.0609L39.6985 32.2745C37.5224 34.662 35.145 35.7262 31.9897 35.7262C26.6503 35.7262 22.6243 31.5875 22.6243 26.0987C22.6243 20.6103 26.4991 16.4716 31.6382 16.4716ZM128.66 16.4716C133.904 16.4716 137.428 20.3963 137.428 26.2375C137.428 26.4866 137.428 26.7684 137.391 27.1947L137.369 27.4587H123.011C123.474 30.6877 125.88 32.8335 129.082 32.8335C131.235 32.8335 132.991 32.0597 134.604 30.3977L134.799 30.1961L136.915 32.0609L136.72 32.2745C134.545 34.662 132.167 35.7262 129.012 35.7262C123.672 35.7262 119.646 31.5875 119.646 26.0987C119.646 20.6103 123.521 16.4716 128.66 16.4716ZM69.0445 13.0201V16.8931H74.6566V19.8429H69.0445V30.1508C69.0445 31.8458 70.0064 32.6353 72.07 32.6353C72.6056 32.6353 73.0008 32.5944 73.6204 32.5077L73.9732 35.2831C72.7446 35.5235 71.7936 35.6309 70.8931 35.6309C67.3565 35.6309 65.6377 33.7214 65.6377 29.793V15.6244L69.0445 13.0201ZM53.4064 16.4721C57.8142 16.4721 60.6624 19.3954 60.6624 23.9199V35.3106H57.3702V24.5764C57.3702 21.3775 55.5994 19.4681 52.6331 19.4681C49.5955 19.4681 47.4739 21.6543 47.4739 24.7846V35.3106H44.1813V16.853H47.4739V19.3181C48.9306 17.4285 50.9219 16.4721 53.4064 16.4721ZM82.0365 16.8525V35.3106H78.7452V16.8525H82.0365ZM108.911 16.4721C113.256 16.4721 115.956 19.3392 115.956 23.9542V35.3106H112.664V24.5764C112.664 21.33 111.052 19.4681 108.243 19.4681C105.884 19.4681 103.506 21.0908 103.506 24.7152V35.3106H100.25V24.5086C100.25 21.3519 98.6094 19.4681 95.8633 19.4681C93.0982 19.4681 91.0905 21.718 91.0905 24.8185V35.3106H87.7991V16.853H91.0905V19.2537C92.204 17.8366 93.8543 16.4721 96.6727 16.4721C99.2571 16.4721 101.324 17.6363 102.543 19.7643C104.148 17.5499 106.236 16.4721 108.911 16.4721ZM31.4143 19.2949C28.5787 19.2949 26.3223 21.5171 25.8376 24.7391H36.8902C36.5332 22.0504 34.9283 19.2949 31.4143 19.2949ZM128.589 19.2949C125.754 19.2949 123.497 21.5175 123.013 24.7391H134.066C133.708 22.0504 132.103 19.2949 128.589 19.2949ZM139.096 17.0007V17.3969H138.276V19.3816H137.819V17.3969H136.999V17.0007H139.096ZM139.946 17.0007L140.617 18.1253L141.278 17.0007H141.702L141.818 19.3816H141.372L141.292 17.7324L140.711 18.7028H140.497L139.913 17.7576L139.833 19.3816H139.405L139.521 17.0007H139.946Z" fill="#1DA4A8"/>
</g>
</svg>
