<?xml version="1.0" encoding="UTF-8"?>
<svg width="16px" height="16px" viewBox="0 0 16 16" version="1.1" xmlns="http://www.w3.org/2000/svg" xmlns:xlink="http://www.w3.org/1999/xlink">
    <title>close</title>
    <g id="Page-1" stroke="none" stroke-width="1" fill="none" fill-rule="evenodd">
        <g id="profile-settings-copy" transform="translate(-1392.000000, -352.000000)">
            <g id="settings-layout-2" transform="translate(248.000000, 219.000000)">
                <g id="close" transform="translate(1144.000000, 133.000000)">
                    <rect id="icon-bg" fill-opacity="0" fill="#FFFFFF" x="0" y="0" width="16" height="16"></rect>
                    <path d="M9.21588546,7.99884069 L15.7074478,1.47771587 C16.0550093,1.13015441 16.0550093,0.578786056 15.7074478,0.260671096 C15.3598864,-0.0868903654 14.808518,-0.0868903654 14.4904031,0.260671096 L7.99884069,6.78179592 L1.47771587,0.260671096 C1.13015441,-0.0868903654 0.578786056,-0.0868903654 0.260671096,0.260671096 C-0.0868903654,0.608232558 -0.0868903654,1.15960091 0.260671096,1.47771587 L6.75223349,7.99884069 L0.260671096,14.5199655 C-0.0868903654,14.867527 -0.0868903654,15.4188953 0.260671096,15.7370103 C0.435019889,15.9113591 0.66596625,15.9974031 0.869773137,15.9974031 C1.07242651,15.9974031 1.30451479,15.9102287 1.47887518,15.7370103 L8,9.21588546 L14.5211248,15.7370103 C14.6954736,15.9113591 14.92642,15.9974031 15.1302269,15.9974031 C15.3328802,15.9974031 15.5649685,15.9102287 15.7393289,15.7370103 C16.0868904,15.3894488 16.0868904,14.8380805 15.7393289,14.5199655 L9.21588546,7.99884069 Z" id="icon" fill="#7F8698"></path>
                </g>
            </g>
        </g>
    </g>
</svg>