<svg width="16" height="16" viewBox="0 0 16 16" fill="none" xmlns="http://www.w3.org/2000/svg">
<path d="M16 5.4233L15.4088 4.72727C13.7598 6.15799 11.1364 7.86368 7.99914 7.86368C4.86273 7.86368 2.23931 6.15799 0.591192 4.72727L0 5.4233C0.469173 5.82974 1.01482 6.25681 1.62406 6.66669L0.265521 8.55627L0.999356 9.09505L2.39656 7.15305C3.02728 7.52083 3.71557 7.85767 4.45199 8.12835L3.69581 10.4828L4.55768 10.7664L5.31729 8.40332C6.02363 8.59924 6.76778 8.72899 7.54629 8.76508V11.245H8.45285V8.76594C9.23136 8.72899 9.97551 8.6001 10.681 8.40418L11.4415 10.7672L12.3042 10.4837L11.5472 8.12921C12.2836 7.85767 12.9719 7.52169 13.6026 7.15219L14.9998 9.09591L15.7336 8.55713L14.3742 6.66669C14.9843 6.25767 15.53 5.82974 15.9991 5.42244L16 5.4233Z" fill="#7F8698"/>
</svg>
