<svg width="64" height="29" viewBox="0 0 64 29" fill="none" xmlns="http://www.w3.org/2000/svg">
<mask id="mask0_28_246" style="mask-type:alpha" maskUnits="userSpaceOnUse" x="0" y="1" width="33" height="23">
<path d="M0 1.5H32.2994V23.3711H0V1.5Z" fill="white"/>
</mask>
<g mask="url(#mask0_28_246)">
<path fill-rule="evenodd" clip-rule="evenodd" d="M28.2341 5.50906C28.2354 4.57109 27.8056 3.97527 26.9153 3.67927C26.2551 3.45969 25.6174 3.5616 25.0102 3.85216C24.8228 3.94184 24.6515 4.10876 24.5275 4.27987C23.7741 5.31921 23.9844 6.98404 25.6662 7.37318C26.8096 7.63772 28.281 7.01975 28.2341 5.50906ZM27.8759 12.5765C27.8759 11.2738 27.8764 9.97097 27.8757 8.66822C27.8755 8.2053 27.8638 8.19342 27.4135 8.19294C26.6079 8.19204 25.8024 8.1921 24.9969 8.193C24.522 8.19354 24.4842 8.23025 24.4841 8.69957C24.4833 10.7283 24.4836 12.7571 24.4838 14.7858C24.4838 15.4123 24.4877 16.0389 24.4833 16.6654C24.4816 16.9156 24.5866 17.0264 24.8427 17.02C25.2701 17.0095 25.6979 17.0172 26.1256 17.0161C26.5432 17.015 26.9617 17.0286 27.3782 17.0062C27.8174 16.9826 27.8757 16.9057 27.8758 16.4848C27.8762 15.1821 27.8759 13.8793 27.8759 12.5765ZM27.0448 1.49998C27.5224 2.57145 27.9979 3.64387 28.4781 4.71425C29.3408 6.63748 30.2063 8.55951 31.0709 10.482C31.4542 11.3344 31.8283 12.1913 32.2276 13.0362C32.3438 13.282 32.3224 13.443 32.1385 13.644C31.3342 14.5235 30.5501 15.4217 29.7474 16.3027C29.6327 16.4286 29.4682 16.5349 29.3063 16.5877C28.0205 17.0075 26.7323 17.4204 25.4375 17.811C25.2707 17.8614 25.024 17.8303 24.8792 17.7366C24.3621 17.4022 23.863 17.0372 23.3805 16.6543C23.2612 16.5596 23.1783 16.3567 23.1687 16.198C23.1408 15.742 23.1522 15.2831 23.1619 14.8256C23.1672 14.5732 23.0819 14.5106 22.84 14.5936C22.122 14.84 21.3897 15.0353 20.6219 14.9937C19.7402 14.946 18.9395 14.7151 18.3782 13.9536C17.4405 12.6817 18.1039 10.7719 19.6297 10.3809C20.6416 10.1217 21.6023 10.307 22.5316 10.7325C22.8918 10.8974 22.9189 10.8852 22.9201 10.5001C22.922 9.93294 22.913 9.36566 22.9241 8.79873C22.9287 8.56124 22.8449 8.43891 22.6089 8.37581C20.8796 7.91324 19.1572 7.92506 17.4733 8.53587C15.9798 9.0776 14.8667 10.0456 14.5203 11.6699C13.9982 14.1173 15.3183 16.1873 17.7742 16.8332C18.1008 16.9191 18.4413 16.9573 18.7612 17.0612C18.9563 17.1245 19.1722 17.2329 19.2958 17.3874C19.7115 17.9073 20.0924 18.4552 20.4819 18.9959C20.6756 19.2648 20.6636 19.3085 20.3553 19.4054C17.7838 20.2127 15.2107 21.0151 12.6393 21.8226C11.3107 22.2398 9.98448 22.6648 8.65684 23.0852C8.39134 23.1692 8.12078 23.2386 7.85898 23.3327C7.59815 23.4265 7.4529 23.35 7.36161 23.0889C7.15469 22.4976 6.93122 21.912 6.71403 21.3243C6.25893 20.0929 5.80352 18.8615 5.34836 17.6301C5.3311 17.5835 5.3129 17.5371 5.29755 17.4898C5.17421 17.1097 5.23445 17.0203 5.63069 17.0189C6.42663 17.0157 7.22269 17.0179 8.01869 17.0177C8.59039 17.0175 8.59797 17.0173 8.58878 16.4304C8.58018 15.8843 8.54675 15.3387 8.53672 14.7926C8.53009 14.4335 8.57767 14.4122 8.92615 14.3873C9.6286 14.3373 10.3427 14.3319 11.0282 14.1919C12.1794 13.9569 13.1728 13.4446 13.6387 12.2556C14.1921 10.8434 13.5959 9.39622 12.2116 8.77634C11.4836 8.45031 10.7143 8.28434 9.92633 8.25939C8.48573 8.21366 7.04382 8.21001 5.60239 8.19234C5.15439 8.18691 5.14078 8.20494 5.14066 8.66763C5.14024 11.1054 5.14107 13.5431 5.13881 15.9809C5.13869 16.1197 5.11516 16.2585 5.10251 16.3973C5.06543 16.4055 5.0283 16.4137 4.99116 16.4218C4.92519 16.3118 4.83976 16.2089 4.79612 16.0907C4.04919 14.0658 3.30949 12.0383 2.564 10.0129C1.74633 7.79157 0.924597 5.57169 0.102806 3.35187C0.0791642 3.28787 0.0347463 3.23151 0 3.17163C0 3.13187 0 3.09204 0 3.05222C0.561672 2.9921 1.12203 2.91151 1.68525 2.87587C3.14096 2.78375 4.59785 2.71055 6.05439 2.63151C7.16412 2.57133 8.27415 2.51682 9.38376 2.45419C10.7509 2.37706 12.1177 2.29366 13.4847 2.21384C14.8516 2.13395 16.2185 2.05401 17.5856 1.97604C19.002 1.89527 20.4182 1.80554 21.8355 1.74052C23.0851 1.68321 24.3361 1.65742 25.5862 1.60876C25.7154 1.60375 25.8422 1.53772 25.9701 1.49998H27.0448Z" fill="#306B72"/>
</g>
<path fill-rule="evenodd" clip-rule="evenodd" d="M27.1642 27.3507C26.4558 26.2813 25.7762 25.1913 25.0324 24.1472C23.8614 22.5032 22.6487 20.889 21.4501 19.2647C21.1018 18.7927 20.7476 18.3247 20.3842 17.8644C20.2276 17.666 20.249 17.5097 20.4238 17.3463C20.7579 17.0343 21.0942 16.7244 21.4177 16.4017C21.5827 16.237 21.7272 16.2317 21.9149 16.3617C23.5501 17.494 25.1912 18.618 26.8247 19.7528C27.2644 20.0583 27.2701 20.0741 27.6034 19.6561C28.9796 17.9303 30.4313 16.2737 31.962 14.6807C33.833 12.7337 35.8382 10.9445 37.9848 9.31194C38.6174 8.83081 39.2774 8.38484 39.9367 7.9403C40.0682 7.85158 40.2525 7.8083 40.4143 7.80316C40.9449 7.78645 41.4763 7.7969 42.0074 7.7969C42.0219 7.83158 42.0364 7.86627 42.0509 7.9009C41.8516 8.09899 41.6502 8.29498 41.4535 8.49558C40.5635 9.40322 39.6393 10.2805 38.7948 11.2288C37.7648 12.3854 36.7696 13.5767 35.8188 14.7992C34.7083 16.2273 33.6056 17.6675 32.6005 19.17C30.87 21.7567 29.2175 24.3953 27.5335 27.013C27.4637 27.1214 27.4064 27.238 27.3433 27.3507H27.1642Z" fill="#5BB160"/>
<path fill-rule="evenodd" clip-rule="evenodd" d="M8.53321 11.2967C8.53362 11.0092 8.53422 10.7216 8.53345 10.434C8.53291 10.2516 8.62288 10.1391 8.80425 10.1604C9.16646 10.203 9.53936 10.2255 9.88341 10.3339C10.3466 10.4797 10.5983 10.9157 10.5658 11.3735C10.5336 11.8281 10.178 12.2547 9.69959 12.3521C9.41142 12.4108 9.11034 12.4095 8.81458 12.426C8.61368 12.4372 8.5304 12.3228 8.53213 12.1298C8.53464 11.8521 8.53279 11.5744 8.53321 11.2967Z" fill="#306B72"/>
<mask id="mask1_28_246" style="mask-type:alpha" maskUnits="userSpaceOnUse" x="61" y="14" width="3" height="3">
<path d="M61.6682 14.0908H64V16.6179H61.6682V14.0908Z" fill="white"/>
</mask>
<g mask="url(#mask1_28_246)">
<path fill-rule="evenodd" clip-rule="evenodd" d="M62.5139 15.3402C62.5144 15.3402 62.5148 15.3402 62.5154 15.3402C62.5154 15.4685 62.5089 15.5972 62.5167 15.7251C62.5323 15.9822 62.6609 16.0505 62.8891 15.9294C63.2508 15.7375 63.2744 15.0271 62.9188 14.8088C62.8326 14.7559 62.6976 14.709 62.6188 14.7414C62.5569 14.7669 62.5331 14.9165 62.5176 15.0151C62.5011 15.121 62.5139 15.2316 62.5139 15.3402ZM64 15.8881C63.7394 16.4911 63.2486 16.6546 62.6409 16.6114C62.4139 16.5952 62.185 16.6065 61.957 16.6075C61.7591 16.6084 61.6678 16.5103 61.6682 16.3146C61.6696 15.6702 61.6696 15.0257 61.6685 14.3813C61.6682 14.184 61.7627 14.0906 61.9599 14.092C62.3366 14.0947 62.7136 14.0852 63.0901 14.0964C63.5959 14.1113 63.8301 14.4576 64 14.8731V15.8881Z" fill="#306B72"/>
</g>
<path fill-rule="evenodd" clip-rule="evenodd" d="M45.6764 10.2221C45.6764 10.5596 45.6724 10.897 45.6772 11.2344C45.6893 12.101 45.5441 12.0055 46.4557 12.0007C47.0677 11.9974 47.4517 11.6888 47.5596 11.0861C47.622 10.7378 47.631 10.3769 47.6324 10.0215C47.637 8.84261 47.168 8.39205 45.9978 8.42888C45.9878 8.42918 45.9779 8.4299 45.968 8.42912C45.7463 8.41151 45.6716 8.52297 45.6746 8.7336C45.6819 9.22972 45.677 9.72596 45.6764 10.2221ZM43.5777 10.2289C43.5776 9.24446 43.5761 8.25993 43.5783 7.27545C43.5792 6.90596 43.6188 6.86399 43.994 6.86936C45.1462 6.88572 46.3014 6.86428 47.4498 6.9419C48.3736 7.00434 49.0603 7.53163 49.4088 8.39013C49.9157 9.63879 49.9376 10.9159 49.3573 12.1485C48.986 12.9373 48.3177 13.4307 47.4431 13.485C46.2545 13.5589 45.0603 13.5416 43.8685 13.5642C43.5955 13.5694 43.5765 13.3883 43.5769 13.1824C43.5789 12.198 43.5778 11.2134 43.5777 10.2289Z" fill="#306B72"/>
<path fill-rule="evenodd" clip-rule="evenodd" d="M55.479 8.84937C55.3696 8.84937 55.2595 8.84143 55.1508 8.8508C54.7934 8.88173 54.5201 8.84453 54.3586 8.42626C54.2038 8.02567 53.3595 7.92626 53.0331 8.21396C52.8047 8.41534 52.8762 8.77343 53.1875 8.87868C53.5069 8.98674 53.8437 9.04286 54.1658 9.14417C54.6576 9.2988 55.1557 9.44352 55.6293 9.64405C56.8961 10.1806 56.9915 11.7224 56.3598 12.6325C55.8522 13.3637 55.0775 13.5859 54.2649 13.6694C53.5937 13.7384 52.9154 13.7047 52.254 13.5105C51.4271 13.2678 50.8589 12.5068 50.6923 11.706C50.646 11.4833 50.717 11.3343 50.9709 11.3205C51.4662 11.2935 51.9612 11.2572 52.4568 11.2395C52.6882 11.2312 52.7351 11.4201 52.7844 11.5993C52.8909 11.9855 53.1645 12.2054 53.542 12.2762C53.9019 12.3436 54.2579 12.3378 54.5259 12.0142C54.7479 11.7461 54.7492 11.4214 54.4525 11.2399C54.1794 11.0728 53.862 10.959 53.5494 10.8797C52.8916 10.7128 52.2469 10.5327 51.6653 10.1617C50.5762 9.4671 50.768 7.89092 51.6411 7.28274C52.1256 6.94531 52.6687 6.80394 53.2383 6.7665C54.0152 6.7154 54.7875 6.72417 55.5104 7.09725C56.1159 7.40967 56.3907 7.93211 56.514 8.56525C56.5545 8.77331 56.4198 8.83373 56.2547 8.8397C55.9964 8.84907 55.7376 8.84214 55.479 8.84214C55.479 8.84459 55.479 8.84698 55.479 8.84937Z" fill="#306B72"/>
<path fill-rule="evenodd" clip-rule="evenodd" d="M60.606 6.74806C61.4001 6.7455 62.0944 6.80729 62.7005 7.25266C63.1301 7.56836 63.329 8.00836 63.4385 8.50585C63.4794 8.69171 63.3666 8.76788 63.2091 8.77726C62.7336 8.8055 62.2574 8.82179 61.7817 8.84556C61.5522 8.85702 61.4539 8.71003 61.3598 8.53236C61.129 8.09648 60.6727 7.91594 60.225 8.06669C60.0116 8.13851 59.8375 8.25726 59.8395 8.50162C59.8415 8.74866 60.0279 8.86466 60.2378 8.92466C60.8495 9.09953 61.4638 9.26514 62.0775 9.43284C63.0878 9.70884 63.7065 10.4487 63.7058 11.3819C63.705 12.353 63.0053 13.2543 62.0519 13.5131C61.2207 13.7387 60.3777 13.7393 59.54 13.5906C58.3833 13.3852 57.8464 12.6111 57.6293 11.6017C57.5939 11.4374 57.6659 11.3606 57.8295 11.3471C58.2844 11.3097 58.7395 11.2725 59.1935 11.226C59.47 11.1976 59.6247 11.2871 59.719 11.5724C59.9097 12.1482 60.392 12.4048 60.9895 12.2999C61.3195 12.242 61.5602 12.0322 61.5997 11.7683C61.6418 11.4864 61.5057 11.216 61.1768 11.0886C60.7801 10.935 60.3631 10.8318 59.9522 10.7166C59.4237 10.5684 58.9038 10.4066 58.4713 10.0459C57.5943 9.31439 57.6626 7.90938 58.6081 7.25899C59.2367 6.82657 59.9484 6.73577 60.606 6.74806Z" fill="#306B72"/>
<path fill-rule="evenodd" clip-rule="evenodd" d="M49.7724 15.1611C49.8645 15.0603 50.0219 14.9674 50.0353 14.8569C50.0629 14.6301 49.8414 14.6184 49.6818 14.5948C49.4999 14.568 49.4441 14.6885 49.438 14.8499C49.4307 15.044 49.527 15.1197 49.7724 15.1611ZM51.039 16.5305C50.4799 16.7214 50.2276 16.6351 49.9733 16.2081C49.8527 16.0058 49.7259 15.8072 49.602 15.6069C49.5564 15.6218 49.5109 15.6367 49.4653 15.6517C49.4561 15.86 49.429 16.0693 49.4417 16.2763C49.4603 16.5782 49.2933 16.6192 49.0513 16.6119C48.8135 16.6047 48.584 16.6273 48.5902 16.2749C48.601 15.6595 48.5973 15.0438 48.5912 14.4283C48.5888 14.1889 48.6893 14.0851 48.93 14.0896C49.3568 14.0977 49.7839 14.087 50.2107 14.0958C50.4841 14.1014 50.736 14.1905 50.8327 14.4696C50.9336 14.7611 50.9417 15.0785 50.6949 15.3021C50.486 15.4912 50.522 15.6388 50.6525 15.8392C50.7915 16.0527 50.903 16.2842 51.039 16.5305Z" fill="#306B72"/>
<path fill-rule="evenodd" clip-rule="evenodd" d="M59.102 15.3295C59.102 15.0309 59.1077 14.7323 59.1002 14.434C59.0943 14.1988 59.186 14.0853 59.4328 14.0894C59.9202 14.0975 60.4079 14.0961 60.8954 14.0896C61.1079 14.0868 61.2047 14.1665 61.1998 14.3879C61.195 14.5986 61.1105 14.7022 60.896 14.6995C60.6672 14.6967 60.4374 14.6895 60.21 14.7084C60.1294 14.7152 60.0549 14.7934 59.9775 14.839C60.0518 14.8877 60.1228 14.9711 60.201 14.9786C60.4181 14.9994 60.6382 14.9902 60.857 14.9898C61.0616 14.9894 61.1362 15.0987 61.1364 15.2917C61.1365 15.4873 61.055 15.5911 60.8534 15.5908C60.6345 15.5905 60.4133 15.575 60.1979 15.6031C60.1105 15.6145 60.0359 15.7237 59.9555 15.7884C60.0344 15.8583 60.1076 15.9791 60.1931 15.9884C60.4488 16.0164 60.7096 16.0073 60.968 16.0003C61.1906 15.9942 61.2616 16.1003 61.2623 16.3104C61.2629 16.5296 61.17 16.613 60.957 16.6103C60.4496 16.6041 59.942 16.6047 59.4346 16.6096C59.2077 16.6118 59.1048 16.5035 59.1042 16.2846C59.1035 15.9662 59.1041 15.6478 59.1041 15.3295C59.1034 15.3295 59.1027 15.3295 59.102 15.3295Z" fill="#306B72"/>
<path fill-rule="evenodd" clip-rule="evenodd" d="M46.028 15.3464C46.0278 15.0381 46.0318 14.7296 46.0265 14.4213C46.0227 14.2014 46.1088 14.0878 46.3418 14.0904C46.8391 14.0959 47.3365 14.0949 47.8339 14.0904C48.0306 14.0886 48.1279 14.164 48.1263 14.3711C48.1249 14.5713 48.0639 14.6998 47.8397 14.6984C47.6308 14.697 47.4201 14.6835 47.2138 14.7071C47.1063 14.7194 47.0065 14.8002 46.9033 14.8501C47.011 14.8959 47.1156 14.968 47.2273 14.9816C47.4136 15.0044 47.6107 14.9616 47.7911 15.0018C47.8938 15.0246 48.0159 15.1419 48.0514 15.2437C48.1062 15.4011 48.0243 15.5471 47.8388 15.5658C47.6121 15.5886 47.3796 15.5667 47.156 15.6031C47.0571 15.6193 46.9737 15.7311 46.8833 15.7994C46.975 15.8663 47.0614 15.98 47.1592 15.9908C47.4148 16.0191 47.6754 16.004 47.9341 16.003C48.1095 16.0023 48.1845 16.089 48.1844 16.261C48.1844 16.4339 48.164 16.5976 47.9463 16.6007C47.3894 16.6086 46.8323 16.6064 46.2754 16.6034C46.0797 16.6024 46.0277 16.4707 46.0281 16.3014C46.0288 15.9831 46.0283 15.6647 46.028 15.3464Z" fill="#306B72"/>
<path fill-rule="evenodd" clip-rule="evenodd" d="M44.0561 15.3127C44.0669 15.4309 44.0433 15.5686 44.0968 15.6626C44.1689 15.7897 44.2849 15.9399 44.4108 15.9739C44.5167 16.0025 44.6915 15.9084 44.7867 15.8173C44.992 15.621 45.3838 15.5865 45.5468 15.8097C45.5986 15.8806 45.5823 16.0404 45.5403 16.134C45.3616 16.5321 44.9934 16.6151 44.6063 16.6583C44.0375 16.7217 43.4885 16.4429 43.3049 15.9772C43.1112 15.486 43.1281 14.6785 43.6529 14.2877C44.0741 13.9742 44.8279 13.9327 45.2482 14.2571C45.4167 14.3872 45.665 14.5225 45.5505 14.8002C45.4839 14.9617 44.9747 14.9565 44.7717 14.8493C44.6441 14.7817 44.4786 14.7235 44.3435 14.745C44.016 14.7968 44.0651 15.0758 44.0561 15.3127Z" fill="#306B72"/>
<path fill-rule="evenodd" clip-rule="evenodd" d="M55.3383 15.3203C55.3379 15.0126 55.3435 14.7049 55.336 14.3975C55.331 14.187 55.4114 14.0864 55.6314 14.0898C56.0877 14.0968 56.5443 14.0935 57.0007 14.0918C57.1913 14.0911 57.3096 14.1704 57.3045 14.371C57.2996 14.5648 57.2085 14.6921 56.9966 14.6953C56.7882 14.6986 56.5784 14.6864 56.3722 14.7086C56.2954 14.7168 56.2269 14.8031 56.1545 14.8538C56.2227 14.9147 56.2833 15.0131 56.3606 15.0285C56.5138 15.0592 56.6762 15.0482 56.8348 15.047C57.0419 15.0455 57.1145 15.1716 57.1237 15.3498C57.1343 15.5559 56.992 15.6011 56.8285 15.5926C56.1785 15.5589 56.0828 15.5894 56.1239 16.2978C56.1405 16.5836 55.9549 16.6118 55.7337 16.6109C55.516 16.6101 55.3313 16.5916 55.3371 16.3026C55.3437 15.9753 55.3387 15.6478 55.3383 15.3203Z" fill="#306B72"/>
<path fill-rule="evenodd" clip-rule="evenodd" d="M52.3667 14.0926C52.6751 14.0926 52.9835 14.0962 53.2917 14.0914C53.508 14.088 53.5609 14.2108 53.5584 14.3972C53.556 14.5793 53.5387 14.7298 53.304 14.7584C52.7786 14.8223 52.7794 14.8285 52.7792 15.3531C52.7791 15.6614 52.7696 15.9701 52.781 16.2781C52.7921 16.579 52.6151 16.6161 52.3772 16.6103C52.1492 16.6046 51.925 16.6243 51.9332 16.2882C51.9422 15.9104 51.9207 15.5316 51.9385 15.1545C51.9526 14.8561 51.841 14.7289 51.5415 14.7581C51.3132 14.7803 51.1594 14.7184 51.1542 14.439C51.1494 14.1819 51.2413 14.0757 51.5015 14.0881C51.7893 14.1018 52.0782 14.0912 52.3667 14.0912V14.0926Z" fill="#306B72"/>
<path fill-rule="evenodd" clip-rule="evenodd" d="M54.7509 15.3421C54.751 15.6703 54.7446 15.9987 54.753 16.3267C54.7597 16.5848 54.6036 16.6236 54.4032 16.6077C54.2015 16.5917 53.9182 16.6914 53.9122 16.3418C53.9009 15.6856 53.9085 15.0291 53.9083 14.3728C53.9083 14.1922 53.9926 14.0934 54.1793 14.0935C54.2589 14.0936 54.3388 14.0971 54.4179 14.0903C54.658 14.0698 54.7645 14.1683 54.7539 14.4174C54.7409 14.7251 54.7508 15.0338 54.7509 15.3421Z" fill="#306B72"/>
<path fill-rule="evenodd" clip-rule="evenodd" d="M58.5689 15.3429C58.5689 15.6602 58.5633 15.9778 58.5705 16.295C58.5775 16.6047 58.376 16.612 58.1511 16.6093C57.9331 16.6067 57.7222 16.6186 57.725 16.3026C57.7306 15.658 57.7308 15.0132 57.7246 14.3686C57.7221 14.1091 57.8808 14.078 58.0778 14.0923C58.2801 14.1069 58.5541 14.0121 58.5648 14.3611C58.5749 14.6881 58.567 15.0156 58.567 15.3429C58.5676 15.3429 58.5683 15.3429 58.5689 15.3429Z" fill="#306B72"/>
</svg>
