<svg width="27" height="29" viewBox="0 0 27 29" fill="none" xmlns="http://www.w3.org/2000/svg">
<path fill-rule="evenodd" clip-rule="evenodd" d="M1.97806 8.03124C2.91452 11.6489 3.36039 13.1661 4.52202 16.7472C5.63668 20.1851 7.50588 22.9163 10.0789 24.8652C11.588 26.0082 12.9107 26.5324 13.4207 26.7076C13.9299 26.5324 15.2526 26.0082 16.7617 24.8652C19.3347 22.9163 21.2039 20.1851 22.3186 16.7472C23.4802 13.1661 23.9261 11.6489 24.8625 8.03124C23.0403 6.8957 16.9138 3.17742 13.4207 2.27004C9.92683 3.17742 3.80103 6.8957 1.97806 8.03124ZM13.4207 28.5L13.2 28.4418C13.1239 28.4217 11.2965 27.9259 9.11413 26.2923C7.12265 24.8019 4.42509 22.0283 2.88544 17.2781C1.64701 13.4599 1.21383 11.9627 0.155083 7.85229L0 7.24985L0.523406 6.91434C0.861905 6.69662 8.87703 1.56918 13.2231 0.546972L13.4207 0.5L13.6175 0.546972C17.9636 1.56918 25.9787 6.69662 26.3179 6.91434L26.8413 7.24985L26.6863 7.85229C25.6275 11.9627 25.1936 13.4599 23.9559 17.2781C22.4155 22.0283 19.718 24.8019 17.7265 26.2923C15.5449 27.9259 13.7174 28.4217 13.6406 28.4418L13.4207 28.5Z" fill="#C8CCD7"/>
<path fill-rule="evenodd" clip-rule="evenodd" d="M9.59492 19.4466C9.57479 19.618 9.51142 19.75 9.4048 19.8432C9.29892 19.9364 9.15726 19.9834 8.98056 19.9834C8.78894 19.9834 8.63535 19.9148 8.51978 19.7769C8.40421 19.6397 8.3468 19.4563 8.3468 19.2259V19.07C8.3468 18.9194 8.37364 18.7867 8.42733 18.6726C8.48175 18.5586 8.55781 18.4706 8.65622 18.4094C8.75539 18.3483 8.86946 18.3177 8.9992 18.3177C9.17143 18.3177 9.30936 18.3655 9.41375 18.4616C9.51738 18.5578 9.57778 18.6913 9.59492 18.8613H9.38019C9.36155 18.7315 9.32129 18.6376 9.25941 18.5794C9.19752 18.5213 9.11029 18.4922 8.9992 18.4922C8.86275 18.4922 8.75539 18.5429 8.67785 18.6443C8.6003 18.745 8.56153 18.8889 8.56153 19.0753V19.2326C8.56153 19.4085 8.59881 19.5487 8.67188 19.6523C8.74569 19.756 8.84859 19.8082 8.98056 19.8082C9.0991 19.8082 9.19007 19.7813 9.25344 19.7277C9.31682 19.674 9.35932 19.58 9.38019 19.4466H9.59492Z" fill="black"/>
<path fill-rule="evenodd" clip-rule="evenodd" d="M10.0068 19.372C10.0068 19.5055 10.0381 19.6128 10.1 19.6941C10.1619 19.7746 10.2447 19.8149 10.3483 19.8149C10.4534 19.8149 10.5362 19.7739 10.5981 19.6919C10.66 19.6099 10.6905 19.495 10.6905 19.3474C10.6905 19.2154 10.6592 19.1081 10.5966 19.0261C10.534 18.944 10.4505 18.903 10.3461 18.903C10.2447 18.903 10.1627 18.944 10.1 19.0246C10.0381 19.1058 10.0068 19.2214 10.0068 19.372ZM9.79956 19.3474C9.79956 19.2296 9.82267 19.123 9.86965 19.029C9.91587 18.9351 9.97999 18.862 10.0628 18.8106C10.1455 18.7599 10.2402 18.7338 10.3461 18.7338C10.5101 18.7338 10.6428 18.7912 10.7442 18.9045C10.8456 19.0179 10.8963 19.1692 10.8963 19.3578V19.372C10.8963 19.4891 10.874 19.5942 10.8292 19.6874C10.7845 19.7806 10.7196 19.8537 10.6361 19.9051C10.5526 19.9573 10.4572 19.9834 10.3483 19.9834C10.185 19.9834 10.0531 19.9267 9.95166 19.8127C9.85026 19.6993 9.79956 19.5487 9.79956 19.3623V19.3474Z" fill="black"/>
<path fill-rule="evenodd" clip-rule="evenodd" d="M11.3484 18.7563L11.3544 18.8898C11.4424 18.7861 11.5616 18.7339 11.7115 18.7339C11.88 18.7339 11.9948 18.7988 12.0552 18.9278C12.0955 18.8696 12.1477 18.8234 12.2118 18.7876C12.2759 18.7518 12.352 18.7339 12.4392 18.7339C12.7039 18.7339 12.8381 18.8741 12.8426 19.1537V19.9612H12.6368V19.1664C12.6368 19.0799 12.6167 19.0158 12.5779 18.9725C12.5384 18.93 12.472 18.9091 12.3796 18.9091C12.3028 18.9091 12.2394 18.9315 12.1887 18.977C12.1387 19.0232 12.1089 19.0844 12.1007 19.1619V19.9612H11.8942V19.1716C11.8942 18.9964 11.8084 18.9091 11.637 18.9091C11.502 18.9091 11.4095 18.9666 11.3596 19.0814V19.9612H11.1538V18.7563H11.3484Z" fill="black"/>
<path fill-rule="evenodd" clip-rule="evenodd" d="M13.9648 19.3486C13.9648 19.2129 13.9357 19.1055 13.8775 19.0265C13.8201 18.9482 13.7404 18.9087 13.6397 18.9087C13.5152 18.9087 13.4212 18.9639 13.3594 19.075V19.6506C13.4205 19.7602 13.5152 19.8153 13.6419 19.8153C13.7404 19.8153 13.8194 19.7758 13.8775 19.6975C13.9357 19.6192 13.9648 19.5029 13.9648 19.3486ZM14.1706 19.3717C14.1706 19.5551 14.1288 19.7027 14.0446 19.8153C13.9611 19.9272 13.8477 19.9831 13.7046 19.9831C13.5577 19.9831 13.4429 19.9369 13.3594 19.8444V20.4237H13.1528V18.7566H13.3415L13.3512 18.8901C13.4354 18.7857 13.5517 18.7342 13.7008 18.7342C13.8455 18.7342 13.9603 18.7887 14.0446 18.8975C14.1288 19.0071 14.1706 19.1585 14.1706 19.3531V19.3717Z" fill="black"/>
<path fill-rule="evenodd" clip-rule="evenodd" d="M14.4507 19.9612H14.6565V18.2509H14.4507V19.9612Z" fill="black"/>
<path fill-rule="evenodd" clip-rule="evenodd" d="M15.0098 19.9612H15.2858V18.7564H15.0098V19.9612ZM14.9868 18.4365C14.9868 18.4037 15.0008 18.3754 15.0278 18.3523C15.0548 18.3291 15.0958 18.318 15.1498 18.318C15.2038 18.318 15.2438 18.3291 15.2718 18.3523C15.2998 18.3754 15.3138 18.4037 15.3138 18.4365C15.3138 18.4701 15.2998 18.4976 15.2718 18.52C15.2438 18.5424 15.2038 18.5536 15.1498 18.5536C15.0958 18.5536 15.0548 18.5424 15.0278 18.52C15.0008 18.4976 14.9868 18.4701 14.9868 18.4365Z" fill="black"/>
<path fill-rule="evenodd" clip-rule="evenodd" d="M15.9437 19.8039C16.009 19.8039 16.0705 19.7875 16.1283 19.754C16.1868 19.7204 16.2288 19.6772 16.2551 19.6235V19.3767H16.093C15.8387 19.3767 15.7119 19.4505 15.7119 19.5981C15.7119 19.6623 15.7337 19.713 15.7772 19.7495C15.82 19.786 15.8755 19.8039 15.9437 19.8039ZM16.2873 19.9612C16.2761 19.9374 16.2663 19.8949 16.2588 19.8337C16.162 19.9337 16.0473 19.9829 15.9137 19.9829C15.7937 19.9829 15.6962 19.9493 15.6197 19.8822C15.5431 19.8151 15.5049 19.7301 15.5049 19.6272C15.5049 19.5012 15.5529 19.4043 15.6489 19.3349C15.7442 19.2656 15.8792 19.2306 16.0533 19.2306H16.2551V19.1359C16.2551 19.0636 16.2333 19.0069 16.1906 18.9636C16.147 18.9211 16.0833 18.9003 15.9985 18.9003C15.925 18.9003 15.8627 18.9182 15.8125 18.9554C15.7629 18.9927 15.7374 19.0375 15.7374 19.0904H15.5296C15.5296 19.03 15.5506 18.9718 15.5934 18.9159C15.6369 18.86 15.6947 18.816 15.7682 18.7832C15.8417 18.7504 15.9227 18.734 16.0113 18.734C16.1508 18.734 16.2603 18.769 16.3391 18.8384C16.4186 18.9077 16.4591 19.0032 16.4621 19.1247V19.6794C16.4621 19.7898 16.4764 19.8777 16.5049 19.9434V19.9612H16.2873Z" fill="black"/>
<path fill-rule="evenodd" clip-rule="evenodd" d="M16.9741 18.7563L16.9809 18.9076C17.0726 18.7921 17.1933 18.7339 17.3417 18.7339C17.596 18.7339 17.7242 18.8778 17.7264 19.1649V19.9612H17.5207V19.1641C17.5199 19.0769 17.5005 19.0128 17.461 18.971C17.4222 18.9293 17.3618 18.9091 17.2791 18.9091C17.2127 18.9091 17.1538 18.927 17.1031 18.9621C17.0532 18.9979 17.0137 19.0448 16.9853 19.1022V19.9612H16.7795V18.7563H16.9741Z" fill="black"/>
<path fill-rule="evenodd" clip-rule="evenodd" d="M18.317 18.4645V18.7561H18.5421V18.9156H18.317V19.6635C18.317 19.7119 18.3266 19.7477 18.3468 19.7723C18.3669 19.7962 18.4012 19.8081 18.4497 19.8081C18.4735 19.8081 18.5056 19.8036 18.5473 19.7947V19.9609C18.4929 19.9759 18.4407 19.9833 18.3893 19.9833C18.2976 19.9833 18.2282 19.9557 18.1813 19.8998C18.1343 19.8439 18.1112 19.7649 18.1112 19.6627V18.9156H17.892V18.7561H18.1112V18.4645H18.317Z" fill="black"/>
<path fill-rule="evenodd" clip-rule="evenodd" d="M7.1069 15.7772C6.78927 15.6855 6.55739 15.5737 6.41275 15.4402C6.2681 15.3075 6.19578 15.1427 6.19578 14.9474C6.19578 14.7259 6.28451 14.5425 6.46121 14.3979C6.63792 14.2532 6.86831 14.1809 7.15163 14.1809C7.34474 14.1809 7.51623 14.2182 7.66758 14.2927C7.81894 14.3673 7.936 14.4702 8.01876 14.6014C8.10226 14.7326 8.14327 14.8765 8.14327 15.0324H7.77122C7.77122 14.8616 7.71679 14.7274 7.60868 14.6297C7.50057 14.5328 7.34847 14.4836 7.15163 14.4836C6.96822 14.4836 6.82581 14.5239 6.72366 14.6044C6.62152 14.6857 6.57007 14.7975 6.57007 14.9399C6.57007 15.0547 6.61853 15.1516 6.71621 15.2314C6.81313 15.3105 6.97865 15.3828 7.21202 15.4491C7.4454 15.5148 7.62807 15.5871 7.76004 15.6661C7.89201 15.7451 7.99042 15.8376 8.0538 15.9435C8.11718 16.0486 8.14923 16.1731 8.14923 16.3155C8.14923 16.5437 8.06051 16.7263 7.88306 16.8628C7.70561 17 7.46776 17.0686 7.17027 17.0686C6.97791 17.0686 6.79747 17.0313 6.63046 16.9575C6.4627 16.8837 6.33372 16.7823 6.24275 16.6533C6.15254 16.525 6.10706 16.3789 6.10706 16.2156H6.47985C6.47985 16.3856 6.54248 16.5198 6.66774 16.6182C6.793 16.7166 6.96076 16.7659 7.17027 16.7659C7.36636 16.7659 7.51623 16.7256 7.62061 16.6458C7.72499 16.566 7.77644 16.4572 7.77644 16.32C7.77644 16.1821 7.72872 16.0754 7.63179 16.0001C7.53561 15.9248 7.3604 15.8503 7.1069 15.7772Z" fill="black"/>
<path fill-rule="evenodd" clip-rule="evenodd" d="M9.45235 15.7772C9.13473 15.6855 8.90285 15.5737 8.75821 15.4402C8.61356 15.3075 8.54124 15.1427 8.54124 14.9474C8.54124 14.7259 8.62997 14.5425 8.80667 14.3979C8.98338 14.2532 9.21377 14.1809 9.49709 14.1809C9.6902 14.1809 9.86169 14.2182 10.013 14.2927C10.1644 14.3673 10.2815 14.4702 10.3642 14.6014C10.4477 14.7326 10.4887 14.8765 10.4887 15.0324H10.1167C10.1167 14.8616 10.0622 14.7274 9.95414 14.6297C9.84603 14.5328 9.69393 14.4836 9.49709 14.4836C9.31367 14.4836 9.17127 14.5239 9.06912 14.6044C8.96697 14.6857 8.91553 14.7975 8.91553 14.9399C8.91553 15.0547 8.96399 15.1516 9.06166 15.2314C9.15859 15.3105 9.32411 15.3828 9.55748 15.4491C9.79085 15.5148 9.97352 15.5871 10.1055 15.6661C10.2375 15.7451 10.3359 15.8376 10.3993 15.9435C10.4626 16.0486 10.4947 16.1731 10.4947 16.3155C10.4947 16.5437 10.406 16.7263 10.2285 16.8628C10.0511 17 9.81322 17.0686 9.51573 17.0686C9.32337 17.0686 9.14293 17.0313 8.97592 16.9575C8.80816 16.8837 8.67917 16.7823 8.58821 16.6533C8.498 16.525 8.45251 16.3789 8.45251 16.2156H8.82531C8.82531 16.3856 8.88794 16.5198 9.0132 16.6182C9.13846 16.7166 9.30622 16.7659 9.51573 16.7659C9.71182 16.7659 9.86169 16.7256 9.96607 16.6458C10.0705 16.566 10.1219 16.4572 10.1219 16.32C10.1219 16.1821 10.0742 16.0754 9.97725 16.0001C9.88107 15.9248 9.70586 15.8503 9.45235 15.7772Z" fill="black"/>
<path fill-rule="evenodd" clip-rule="evenodd" d="M11.4562 15.9915H12.412L11.9333 14.677L11.4562 15.9915ZM12.5216 16.2942H11.3443L11.0796 17.0301H10.6971L11.7708 14.2192H12.0951L13.1703 17.0301H12.79L12.5216 16.2942Z" fill="black"/>
<path fill-rule="evenodd" clip-rule="evenodd" d="M15.1374 15.7309H13.9191V16.727H15.3343V17.0297H13.5486V14.2196H15.3149V14.5223H13.9191V15.4282H15.1374V15.7309Z" fill="black"/>
<path fill-rule="evenodd" clip-rule="evenodd" d="M17.8555 17.03H17.4961V14.6501L16.7766 14.914V14.5897L17.7996 14.2057H17.8555V17.03Z" fill="black"/>
<path fill-rule="evenodd" clip-rule="evenodd" d="M19.7781 14.4742C19.638 14.4742 19.5246 14.5174 19.4374 14.6047C19.3509 14.6912 19.3069 14.8097 19.3069 14.9588C19.3069 15.1012 19.3502 15.2168 19.4352 15.3055C19.5209 15.3935 19.635 15.4375 19.7781 15.4375C19.9213 15.4375 20.0354 15.3935 20.1211 15.3055C20.2061 15.2168 20.2493 15.1012 20.2493 14.9588C20.2493 14.8157 20.2046 14.6994 20.1159 14.6092C20.0271 14.5189 19.9146 14.4742 19.7781 14.4742ZM20.3149 16.2636C20.3149 16.107 20.265 15.9788 20.1651 15.8796C20.0652 15.7805 19.9354 15.7313 19.7744 15.7313C19.6133 15.7313 19.4844 15.7797 19.3874 15.8774C19.2898 15.9751 19.2413 16.1041 19.2413 16.2636C19.2413 16.4232 19.289 16.5484 19.3837 16.6401C19.4776 16.7319 19.6096 16.7773 19.7781 16.7773C19.9451 16.7773 20.0764 16.7311 20.1718 16.6394C20.2672 16.5469 20.3149 16.4217 20.3149 16.2636ZM20.6065 14.9529C20.6065 15.093 20.5692 15.2183 20.4954 15.3272C20.4216 15.4368 20.3209 15.5225 20.1949 15.5844C20.3418 15.647 20.4581 15.7395 20.5438 15.8603C20.6288 15.981 20.6721 16.1182 20.6721 16.2711C20.6721 16.5149 20.5901 16.708 20.426 16.8526C20.262 16.9965 20.0458 17.0689 19.7781 17.0689C19.5082 17.0689 19.2912 16.9965 19.1287 16.8511C18.9654 16.7065 18.8842 16.5134 18.8842 16.2711C18.8842 16.1197 18.9259 15.9825 19.0087 15.8603C19.0922 15.738 19.207 15.6455 19.3531 15.5821C19.2286 15.5203 19.1302 15.4353 19.0579 15.3257C18.9863 15.2161 18.9498 15.0923 18.9498 14.9529C18.9498 14.7165 19.0258 14.5279 19.1779 14.3892C19.3293 14.2505 19.5298 14.1804 19.7781 14.1804C20.0249 14.1804 20.2247 14.2505 20.3776 14.3892C20.5297 14.5279 20.6065 14.7165 20.6065 14.9529Z" fill="black"/>
<path fill-rule="evenodd" clip-rule="evenodd" d="M12.9203 10.5678C12.8293 10.5678 12.7428 10.532 12.6787 10.4679L11.0966 8.88576C10.9631 8.7523 10.9631 8.53533 11.0966 8.40187C11.23 8.26841 11.447 8.26841 11.5804 8.40187L12.9203 9.7417L15.2599 7.40203C15.3942 7.26857 15.6104 7.26857 15.7438 7.40203C15.8773 7.53549 15.8773 7.75246 15.7438 7.88592L13.1618 10.4679C13.0977 10.532 13.0112 10.5678 12.9203 10.5678Z" fill="#5BB160"/>
</svg>
